<svg width="965" height="232" viewBox="0 0 965 232" fill="none" xmlns="http://www.w3.org/2000/svg">
<rect width="213.648" height="231.467" rx="37" fill="white"/>
<path d="M30.0088 43.4799C74.4402 17.5726 104.691 63.1592 104.691 63.1592C104.691 63.1592 104.691 0.704586 184.1 52.2457C263.51 103.787 37.5716 175.613 99.0192 190.001C160.467 204.39 30.0088 203.394 30.0088 181.235C30.0088 159.076 63.096 150.037 52.6972 135.649C42.2984 121.26 -14.4225 69.3872 30.0088 43.4799Z" fill="url(#paint0_radial_1_30)" style="mix-blend-mode:darken"/>
<ellipse cx="147.002" cy="88.0885" rx="60.0296" ry="9.37112" fill="white"/>
<ellipse cx="163.072" cy="121.824" rx="38.2866" ry="6.55978" fill="white"/>
<path d="M233.46 54.5152H273.81C279.56 54.5152 284.685 55.7152 289.185 58.1152C293.685 60.5152 297.235 63.9902 299.835 68.5402C302.485 73.0402 303.81 78.4152 303.81 84.6652C303.81 90.9152 302.685 96.0402 300.435 100.04C298.235 103.99 295.585 106.965 292.485 108.965C289.385 110.915 286.51 112.09 283.86 112.49L307.935 153.515H282.735L261.285 114.215H255.885V153.515H233.46V54.5152ZM255.885 98.6902H265.785C269.785 98.6902 273.285 97.7152 276.285 95.7652C279.285 93.8152 280.785 90.3652 280.785 85.4152C280.785 80.4652 279.31 77.0402 276.36 75.1402C273.41 73.1902 269.935 72.2152 265.935 72.2152H255.885V98.6902ZM344.354 120.44C344.354 125.34 345.279 129.265 347.129 132.215C348.979 135.115 352.079 136.565 356.429 136.565C360.879 136.565 364.004 135.115 365.804 132.215C367.654 129.265 368.579 125.34 368.579 120.44V91.9402H391.079V122.84C391.079 129.44 389.704 135.19 386.954 140.09C384.254 144.94 380.329 148.69 375.179 151.34C370.029 153.99 363.779 155.315 356.429 155.315C349.129 155.315 342.904 153.99 337.754 151.34C332.604 148.69 328.679 144.94 325.979 140.09C323.279 135.19 321.929 129.44 321.929 122.84V91.9402H344.354V120.44ZM404.557 153.515V50.3152H427.357V100.94C427.807 99.5402 428.957 98.0152 430.807 96.3652C432.707 94.6652 435.182 93.2152 438.232 92.0152C441.332 90.7652 444.832 90.1402 448.732 90.1402C454.732 90.1402 459.932 91.6152 464.332 94.5652C468.732 97.5152 472.132 101.465 474.532 106.415C476.932 111.315 478.132 116.765 478.132 122.765C478.132 128.765 476.932 134.24 474.532 139.19C472.132 144.09 468.732 148.015 464.332 150.965C459.932 153.865 454.732 155.315 448.732 155.315C445.432 155.315 442.307 154.715 439.357 153.515C436.457 152.365 433.932 150.89 431.782 149.09C429.682 147.24 428.132 145.39 427.132 143.54V153.515H404.557ZM455.782 122.765C455.782 119.965 455.157 117.465 453.907 115.265C452.707 113.015 451.032 111.265 448.882 110.015C446.782 108.715 444.407 108.065 441.757 108.065C439.007 108.065 436.532 108.715 434.332 110.015C432.182 111.265 430.482 113.015 429.232 115.265C427.982 117.465 427.357 119.965 427.357 122.765C427.357 125.565 427.982 128.09 429.232 130.34C430.482 132.54 432.182 134.265 434.332 135.515C436.532 136.765 439.007 137.39 441.757 137.39C444.407 137.39 446.782 136.765 448.882 135.515C451.032 134.265 452.707 132.54 453.907 130.34C455.157 128.09 455.782 125.565 455.782 122.765ZM489.471 153.515V91.9402H512.271V153.515H489.471ZM501.171 79.2652C497.571 79.2652 494.521 78.0152 492.021 75.5152C489.521 72.9652 488.271 69.9402 488.271 66.4402C488.271 62.9402 489.521 59.9152 492.021 57.3652C494.571 54.7652 497.621 53.4652 501.171 53.4652C503.521 53.4652 505.671 54.0652 507.621 55.2652C509.571 56.4152 511.146 57.9652 512.346 59.9152C513.546 61.8652 514.146 64.0402 514.146 66.4402C514.146 69.9402 512.871 72.9652 510.321 75.5152C507.771 78.0152 504.721 79.2652 501.171 79.2652ZM528.729 153.515V91.9402H551.529V153.515H528.729ZM540.429 79.2652C536.829 79.2652 533.779 78.0152 531.279 75.5152C528.779 72.9652 527.529 69.9402 527.529 66.4402C527.529 62.9402 528.779 59.9152 531.279 57.3652C533.829 54.7652 536.879 53.4652 540.429 53.4652C542.779 53.4652 544.929 54.0652 546.879 55.2652C548.829 56.4152 550.404 57.9652 551.604 59.9152C552.804 61.8652 553.404 64.0402 553.404 66.4402C553.404 69.9402 552.129 72.9652 549.579 75.5152C547.029 78.0152 543.979 79.2652 540.429 79.2652ZM619.587 133.115C624.187 133.115 628.362 132.44 632.112 131.09C635.912 129.74 638.737 128.415 640.587 127.115L650.187 146.165C647.837 148.165 643.812 150.19 638.112 152.24C632.462 154.29 625.737 155.315 617.937 155.315C610.637 155.315 603.787 154.04 597.387 151.49C590.987 148.94 585.337 145.365 580.437 140.765C575.587 136.115 571.762 130.69 568.962 124.49C566.212 118.24 564.837 111.465 564.837 104.165C564.837 96.8652 566.212 90.0902 568.962 83.8402C571.712 77.5402 575.512 72.0652 580.362 67.4152C585.262 62.7652 590.912 59.1652 597.312 56.6152C603.762 54.0152 610.637 52.7152 617.937 52.7152C625.737 52.7152 632.462 53.7402 638.112 55.7902C643.812 57.8402 647.837 59.8652 650.187 61.8652L640.587 80.9152C638.737 79.5652 635.912 78.2402 632.112 76.9402C628.362 75.5902 624.187 74.9152 619.587 74.9152C614.487 74.9152 610.037 75.7152 606.237 77.3152C602.437 78.8652 599.262 81.0152 596.712 83.7652C594.162 86.5152 592.262 89.6152 591.012 93.0652C589.762 96.5152 589.137 100.14 589.137 103.94C589.137 107.79 589.762 111.465 591.012 114.965C592.262 118.415 594.162 121.515 596.712 124.265C599.262 127.015 602.437 129.19 606.237 130.79C610.037 132.34 614.487 133.115 619.587 133.115ZM686.716 153.515H663.841V50.3152H686.716V153.515ZM702.166 153.515V91.9402H724.966V153.515H702.166ZM713.866 79.2652C710.266 79.2652 707.216 78.0152 704.716 75.5152C702.216 72.9652 700.966 69.9402 700.966 66.4402C700.966 62.9402 702.216 59.9152 704.716 57.3652C707.266 54.7652 710.316 53.4652 713.866 53.4652C716.216 53.4652 718.366 54.0652 720.316 55.2652C722.266 56.4152 723.841 57.9652 725.041 59.9152C726.241 61.8652 726.841 64.0402 726.841 66.4402C726.841 69.9402 725.566 72.9652 723.016 75.5152C720.466 78.0152 717.416 79.2652 713.866 79.2652ZM783.049 90.1402C787.349 90.1402 791.549 91.0152 795.649 92.7652C799.749 94.5152 803.124 97.2902 805.774 101.09C808.424 104.84 809.749 109.79 809.749 115.94V153.515H786.874V119.69C786.874 115.29 785.824 111.99 783.724 109.79C781.624 107.54 778.874 106.415 775.474 106.415C773.224 106.415 771.099 107.015 769.099 108.215C767.149 109.365 765.549 111.015 764.299 113.165C763.099 115.265 762.499 117.69 762.499 120.44V153.515H739.699V91.9402H762.499V101.015C763.099 99.3652 764.349 97.7152 766.249 96.0652C768.199 94.3652 770.624 92.9652 773.524 91.8652C776.474 90.7152 779.649 90.1402 783.049 90.1402ZM823.748 153.515V91.9402H846.548V153.515H823.748ZM835.448 79.2652C831.848 79.2652 828.798 78.0152 826.298 75.5152C823.798 72.9652 822.548 69.9402 822.548 66.4402C822.548 62.9402 823.798 59.9152 826.298 57.3652C828.848 54.7652 831.898 53.4652 835.448 53.4652C837.798 53.4652 839.948 54.0652 841.898 55.2652C843.848 56.4152 845.423 57.9652 846.623 59.9152C847.823 61.8652 848.423 64.0402 848.423 66.4402C848.423 69.9402 847.148 72.9652 844.598 75.5152C842.048 78.0152 838.998 79.2652 835.448 79.2652ZM895.631 137.39C898.481 137.39 900.831 136.915 902.681 135.965C904.531 134.965 905.781 134.165 906.431 133.565L916.856 149.015C916.056 149.665 914.681 150.515 912.731 151.565C910.781 152.565 908.331 153.44 905.381 154.19C902.481 154.94 899.156 155.315 895.406 155.315C888.356 155.315 882.156 153.99 876.806 151.34C871.456 148.64 867.281 144.84 864.281 139.94C861.331 135.04 859.856 129.29 859.856 122.69C859.856 116.04 861.331 110.29 864.281 105.44C867.281 100.59 871.456 96.8402 876.806 94.1902C882.156 91.4902 888.356 90.1402 895.406 90.1402C899.106 90.1402 902.406 90.5402 905.306 91.3402C908.256 92.0902 910.731 92.9652 912.731 93.9652C914.731 94.9152 916.131 95.7402 916.931 96.4402L906.281 112.04C905.931 111.69 905.281 111.19 904.331 110.54C903.431 109.89 902.256 109.315 900.806 108.815C899.356 108.315 897.631 108.065 895.631 108.065C893.181 108.065 890.881 108.69 888.731 109.94C886.631 111.19 884.931 112.915 883.631 115.115C882.331 117.315 881.681 119.84 881.681 122.69C881.681 125.54 882.331 128.09 883.631 130.34C884.931 132.54 886.631 134.265 888.731 135.515C890.881 136.765 893.181 137.39 895.631 137.39Z" fill="white"/>
<defs>
<radialGradient id="paint0_radial_1_30" cx="0" cy="0" r="1" gradientUnits="userSpaceOnUse" gradientTransform="translate(164.49 67.472) rotate(135.251) scale(163.727 181.925)">
<stop offset="0.272358" stop-color="#488FD2"/>
<stop offset="0.756097" stop-color="#254A6C"/>
</radialGradient>
</defs>
</svg>
